<?xml version="1.0" encoding="UTF-8"?>
<svg xmlns="http://www.w3.org/2000/svg" xmlns:xlink="http://www.w3.org/1999/xlink" viewBox="0 0 500 500">
  <defs>
    <style>
      .cls-1 {
        fill: url(#Degradado_sin_nombre_2-6);
      }

      .cls-1, .cls-2, .cls-3, .cls-4, .cls-5, .cls-6, .cls-7, .cls-8, .cls-9, .cls-10, .cls-11, .cls-12, .cls-13, .cls-14, .cls-15, .cls-16, .cls-17, .cls-18, .cls-19, .cls-20, .cls-21, .cls-22, .cls-23, .cls-24, .cls-25, .cls-26, .cls-27, .cls-28, .cls-29, .cls-30, .cls-31, .cls-32, .cls-33, .cls-34, .cls-35, .cls-36, .cls-37, .cls-38, .cls-39, .cls-40, .cls-41, .cls-42, .cls-43, .cls-44, .cls-45, .cls-46, .cls-47, .cls-48, .cls-49, .cls-50, .cls-51, .cls-52 {
        stroke-width: 0px;
      }

      .cls-2 {
        fill: url(#Degradado_sin_nombre_5-4);
      }

      .cls-3 {
        fill: url(#Degradado_sin_nombre_7-5);
      }

      .cls-4 {
        fill: url(#Degradado_sin_nombre_5-7);
      }

      .cls-5 {
        fill: url(#Degradado_sin_nombre_2-2);
      }

      .cls-5, .cls-18, .cls-22, .cls-26, .cls-29, .cls-34, .cls-36, .cls-39, .cls-43, .cls-48 {
        mix-blend-mode: multiply;
      }

      .cls-5, .cls-33, .cls-52 {
        opacity: .2;
      }

      .cls-6 {
        fill: url(#linear-gradient);
      }

      .cls-7 {
        fill: url(#Degradado_sin_nombre_2-4);
      }

      .cls-8 {
        fill: url(#Degradado_sin_nombre_7-3);
      }

      .cls-9 {
        fill: url(#Degradado_sin_nombre_7-2);
      }

      .cls-10 {
        fill: url(#Degradado_sin_nombre_4-8);
      }

      .cls-11 {
        fill: url(#Degradado_sin_nombre_4-4);
      }

      .cls-12 {
        fill: url(#Degradado_sin_nombre_2-7);
      }

      .cls-53 {
        isolation: isolate;
      }

      .cls-13 {
        fill: url(#Degradado_sin_nombre_4-2);
      }

      .cls-14 {
        fill: url(#Degradado_sin_nombre_5-2);
      }

      .cls-15 {
        fill: #d4d4d4;
      }

      .cls-16 {
        fill: url(#Degradado_sin_nombre_5-3);
      }

      .cls-17 {
        fill: url(#Degradado_sin_nombre_2-3);
      }

      .cls-18 {
        fill: url(#Degradado_sin_nombre_147-3);
      }

      .cls-18, .cls-22, .cls-26, .cls-29, .cls-34, .cls-36, .cls-39, .cls-43, .cls-48 {
        opacity: .5;
      }

      .cls-19 {
        fill: url(#Degradado_sin_nombre_7-4);
      }

      .cls-20 {
        fill: url(#Degradado_sin_nombre_7-6);
      }

      .cls-21 {
        fill: url(#Degradado_sin_nombre_4);
      }

      .cls-22 {
        fill: url(#Degradado_sin_nombre_2-11);
      }

      .cls-23 {
        fill: url(#Degradado_sin_nombre_7);
      }

      .cls-24 {
        fill: url(#linear-gradient-2);
      }

      .cls-25 {
        fill: url(#Degradado_sin_nombre_2-9);
      }

      .cls-26 {
        fill: url(#Degradado_sin_nombre_147-4);
      }

      .cls-27 {
        fill: url(#Degradado_sin_nombre_4-3);
      }

      .cls-28 {
        fill: url(#Degradado_sin_nombre_5-5);
      }

      .cls-29 {
        fill: url(#Degradado_sin_nombre_147-5);
      }

      .cls-30 {
        fill: url(#Degradado_sin_nombre_2-10);
      }

      .cls-31 {
        fill: url(#Degradado_sin_nombre_7-9);
      }

      .cls-32 {
        fill: url(#Degradado_sin_nombre_7-10);
      }

      .cls-33, .cls-40 {
        fill: #fff;
      }

      .cls-34 {
        fill: url(#Degradado_sin_nombre_2-5);
      }

      .cls-35 {
        fill: url(#Degradado_sin_nombre_4-6);
      }

      .cls-36 {
        fill: url(#Degradado_sin_nombre_147-2);
      }

      .cls-37 {
        fill: url(#Degradado_sin_nombre_4-9);
      }

      .cls-38 {
        fill: url(#Degradado_sin_nombre_7-8);
      }

      .cls-39 {
        fill: url(#Degradado_sin_nombre_147-6);
      }

      .cls-41 {
        fill: url(#Degradado_sin_nombre_2-12);
      }

      .cls-42 {
        fill: url(#Degradado_sin_nombre_2);
      }

      .cls-43 {
        fill: url(#Degradado_sin_nombre_147);
      }

      .cls-44 {
        fill: #c2c2c2;
      }

      .cls-45 {
        fill: url(#Degradado_sin_nombre_4-5);
      }

      .cls-46 {
        fill: url(#Degradado_sin_nombre_7-7);
      }

      .cls-47 {
        fill: url(#Degradado_sin_nombre_5);
      }

      .cls-48 {
        fill: url(#Degradado_sin_nombre_2-8);
      }

      .cls-49 {
        fill: url(#Degradado_sin_nombre_5-6);
      }

      .cls-50 {
        fill: url(#Degradado_sin_nombre_4-10);
      }

      .cls-51 {
        fill: url(#Degradado_sin_nombre_4-7);
      }

      .cls-52 {
        fill: #000;
      }
    </style>
    <linearGradient id="Degradado_sin_nombre_147" data-name="Degradado sin nombre 147" x1="428.08" y1="363.46" x2="428.78" y2="383.6" gradientUnits="userSpaceOnUse">
      <stop offset="0" stop-color="#272dfd"/>
      <stop offset="1" stop-color="#098cfd"/>
    </linearGradient>
    <linearGradient id="Degradado_sin_nombre_7" data-name="Degradado sin nombre 7" x1="426.31" y1="349.25" x2="428.43" y2="373.36" gradientUnits="userSpaceOnUse">
      <stop offset="0" stop-color="#fc8056"/>
      <stop offset="1" stop-color="#e53938"/>
    </linearGradient>
    <linearGradient id="Degradado_sin_nombre_7-2" data-name="Degradado sin nombre 7" x1="429.84" y1="338.39" x2="425.59" y2="429.14" xlink:href="#Degradado_sin_nombre_7"/>
    <linearGradient id="Degradado_sin_nombre_147-2" data-name="Degradado sin nombre 147" x1="79.61" y1="363.46" x2="80.31" y2="383.6" xlink:href="#Degradado_sin_nombre_147"/>
    <linearGradient id="Degradado_sin_nombre_7-3" data-name="Degradado sin nombre 7" x1="77.84" y1="349.25" x2="79.96" y2="373.36" xlink:href="#Degradado_sin_nombre_7"/>
    <linearGradient id="Degradado_sin_nombre_7-4" data-name="Degradado sin nombre 7" x1="81.37" y1="338.39" x2="77.12" y2="429.14" xlink:href="#Degradado_sin_nombre_7"/>
    <linearGradient id="linear-gradient" x1="399.17" y1="194.01" x2="395.86" y2="-55.68" gradientUnits="userSpaceOnUse">
      <stop offset="0" stop-color="#00ffce"/>
      <stop offset=".16" stop-color="#00d3ce"/>
      <stop offset=".35" stop-color="#00a8ce"/>
      <stop offset=".54" stop-color="#0086ce"/>
      <stop offset=".71" stop-color="#006dce"/>
      <stop offset=".87" stop-color="#005fce"/>
      <stop offset="1" stop-color="#005ace"/>
    </linearGradient>
    <linearGradient id="linear-gradient-2" x1="64.4" y1="309.43" x2="60.85" y2="40.76" xlink:href="#linear-gradient"/>
    <linearGradient id="Degradado_sin_nombre_147-3" data-name="Degradado sin nombre 147" x1="41.12" y1="420.45" x2="462.4" y2="420.45" xlink:href="#Degradado_sin_nombre_147"/>
    <linearGradient id="Degradado_sin_nombre_4" data-name="Degradado sin nombre 4" x1="256.41" y1="378.44" x2="253.93" y2="296.75" gradientUnits="userSpaceOnUse">
      <stop offset="0" stop-color="#031a2f"/>
      <stop offset="1" stop-color="#154456"/>
    </linearGradient>
    <linearGradient id="Degradado_sin_nombre_2" data-name="Degradado sin nombre 2" x1="257.32" y1="360.88" x2="257.32" y2="265.12" gradientUnits="userSpaceOnUse">
      <stop offset="0" stop-color="#f99f05"/>
      <stop offset="1" stop-color="#f9c404"/>
    </linearGradient>
    <linearGradient id="Degradado_sin_nombre_2-2" data-name="Degradado sin nombre 2" x1="257.32" y1="364.86" x2="257.32" y2="273.47" xlink:href="#Degradado_sin_nombre_2"/>
    <linearGradient id="Degradado_sin_nombre_5" data-name="Degradado sin nombre 5" x1="248.01" y1="368.64" x2="270.63" y2="136.6" gradientUnits="userSpaceOnUse">
      <stop offset="0" stop-color="#012b3c"/>
      <stop offset="1" stop-color="#004a5d"/>
    </linearGradient>
    <linearGradient id="Degradado_sin_nombre_5-2" data-name="Degradado sin nombre 5" x1="252.73" y1="369.1" x2="275.35" y2="137.06" xlink:href="#Degradado_sin_nombre_5"/>
    <linearGradient id="Degradado_sin_nombre_5-3" data-name="Degradado sin nombre 5" x1="203.06" y1="364.26" x2="225.69" y2="132.22" xlink:href="#Degradado_sin_nombre_5"/>
    <linearGradient id="Degradado_sin_nombre_5-4" data-name="Degradado sin nombre 5" x1="299.1" y1="373.62" x2="321.73" y2="141.58" xlink:href="#Degradado_sin_nombre_5"/>
    <linearGradient id="Degradado_sin_nombre_5-5" data-name="Degradado sin nombre 5" x1="245.68" y1="368.41" x2="268.3" y2="136.37" xlink:href="#Degradado_sin_nombre_5"/>
    <linearGradient id="Degradado_sin_nombre_5-6" data-name="Degradado sin nombre 5" x1="254.97" y1="369.32" x2="277.59" y2="137.28" xlink:href="#Degradado_sin_nombre_5"/>
    <linearGradient id="Degradado_sin_nombre_5-7" data-name="Degradado sin nombre 5" x1="250.36" y1="368.87" x2="272.98" y2="136.83" xlink:href="#Degradado_sin_nombre_5"/>
    <linearGradient id="Degradado_sin_nombre_4-2" data-name="Degradado sin nombre 4" x1="253.22" y1="418.07" x2="253.77" y2="396.06" xlink:href="#Degradado_sin_nombre_4"/>
    <linearGradient id="Degradado_sin_nombre_4-3" data-name="Degradado sin nombre 4" x1="124.2" y1="212.73" x2="129.39" y2="212.73" xlink:href="#Degradado_sin_nombre_4"/>
    <linearGradient id="Degradado_sin_nombre_4-4" data-name="Degradado sin nombre 4" x1="137.59" y1="212.73" x2="142.77" y2="212.73" xlink:href="#Degradado_sin_nombre_4"/>
    <linearGradient id="Degradado_sin_nombre_2-3" data-name="Degradado sin nombre 2" x1="231.6" y1="408.56" x2="241.13" y2="77.21" xlink:href="#Degradado_sin_nombre_2"/>
    <linearGradient id="Degradado_sin_nombre_2-4" data-name="Degradado sin nombre 2" x1="268.02" y1="409.61" x2="277.55" y2="78.26" xlink:href="#Degradado_sin_nombre_2"/>
    <linearGradient id="Degradado_sin_nombre_2-5" data-name="Degradado sin nombre 2" x1="240.33" y1="130.53" x2="275.05" y2="130.53" xlink:href="#Degradado_sin_nombre_2"/>
    <linearGradient id="Degradado_sin_nombre_4-5" data-name="Degradado sin nombre 4" x1="242.15" y1="116.93" x2="272.99" y2="116.93" xlink:href="#Degradado_sin_nombre_4"/>
    <linearGradient id="Degradado_sin_nombre_2-6" data-name="Degradado sin nombre 2" x1="255.53" y1="-7.75" x2="259.6" y2="108.76" xlink:href="#Degradado_sin_nombre_2"/>
    <linearGradient id="Degradado_sin_nombre_4-6" data-name="Degradado sin nombre 4" x1="254.62" y1="0" x2="255.42" y2="22.86" xlink:href="#Degradado_sin_nombre_4"/>
    <linearGradient id="Degradado_sin_nombre_4-7" data-name="Degradado sin nombre 4" x1="256.89" y1="7.38" x2="258.27" y2="46.96" xlink:href="#Degradado_sin_nombre_4"/>
    <linearGradient id="Degradado_sin_nombre_4-8" data-name="Degradado sin nombre 4" x1="256.89" y1="31.58" x2="258.27" y2="71.14" xlink:href="#Degradado_sin_nombre_4"/>
    <linearGradient id="Degradado_sin_nombre_4-9" data-name="Degradado sin nombre 4" x1="256.89" y1="55.76" x2="258.27" y2="95.33" xlink:href="#Degradado_sin_nombre_4"/>
    <linearGradient id="Degradado_sin_nombre_4-10" data-name="Degradado sin nombre 4" x1="260.36" y1="79.83" x2="261.11" y2="101.54" xlink:href="#Degradado_sin_nombre_4"/>
    <linearGradient id="Degradado_sin_nombre_147-4" data-name="Degradado sin nombre 147" x1="95.48" y1="444" x2="96.47" y2="472.32" xlink:href="#Degradado_sin_nombre_147"/>
    <linearGradient id="Degradado_sin_nombre_7-5" data-name="Degradado sin nombre 7" x1="93" y1="424.04" x2="95.99" y2="457.92" xlink:href="#Degradado_sin_nombre_7"/>
    <linearGradient id="Degradado_sin_nombre_7-6" data-name="Degradado sin nombre 7" x1="97.97" y1="408.77" x2="91.99" y2="536.33" xlink:href="#Degradado_sin_nombre_7"/>
    <linearGradient id="Degradado_sin_nombre_147-5" data-name="Degradado sin nombre 147" x1="410.93" y1="444" x2="411.92" y2="472.32" xlink:href="#Degradado_sin_nombre_147"/>
    <linearGradient id="Degradado_sin_nombre_7-7" data-name="Degradado sin nombre 7" x1="408.44" y1="424.04" x2="411.43" y2="457.92" xlink:href="#Degradado_sin_nombre_7"/>
    <linearGradient id="Degradado_sin_nombre_7-8" data-name="Degradado sin nombre 7" x1="413.41" y1="408.77" x2="407.43" y2="536.33" xlink:href="#Degradado_sin_nombre_7"/>
    <linearGradient id="Degradado_sin_nombre_147-6" data-name="Degradado sin nombre 147" x1="129.77" y1="490.33" x2="376.47" y2="490.33" xlink:href="#Degradado_sin_nombre_147"/>
    <linearGradient id="Degradado_sin_nombre_2-7" data-name="Degradado sin nombre 2" x1="165.18" y1="500.72" x2="166.27" y2="407.66" xlink:href="#Degradado_sin_nombre_2"/>
    <linearGradient id="Degradado_sin_nombre_2-8" data-name="Degradado sin nombre 2" x1="166.16" y1="422.38" x2="165.63" y2="431.02" xlink:href="#Degradado_sin_nombre_2"/>
    <linearGradient id="Degradado_sin_nombre_2-9" data-name="Degradado sin nombre 2" x1="166.57" y1="491.61" x2="165.74" y2="476.83" xlink:href="#Degradado_sin_nombre_2"/>
    <linearGradient id="Degradado_sin_nombre_2-10" data-name="Degradado sin nombre 2" x1="339.2" y1="502.77" x2="340.29" y2="409.71" xlink:href="#Degradado_sin_nombre_2"/>
    <linearGradient id="Degradado_sin_nombre_2-11" data-name="Degradado sin nombre 2" x1="340.2" y1="422.38" x2="339.67" y2="431.02" xlink:href="#Degradado_sin_nombre_2"/>
    <linearGradient id="Degradado_sin_nombre_2-12" data-name="Degradado sin nombre 2" x1="340.61" y1="491.61" x2="339.78" y2="476.83" xlink:href="#Degradado_sin_nombre_2"/>
    <linearGradient id="Degradado_sin_nombre_7-9" data-name="Degradado sin nombre 7" x1="253.14" y1="393.39" x2="255.76" y2="76.18" xlink:href="#Degradado_sin_nombre_7"/>
    <linearGradient id="Degradado_sin_nombre_7-10" data-name="Degradado sin nombre 7" x1="252.97" y1="377.38" x2="253.58" y2="450.31" xlink:href="#Degradado_sin_nombre_7"/>
  </defs>
  <g class="cls-53">
    <g id="OBJECTS">
      <g>
        <g>
          <ellipse class="cls-43" cx="428.43" cy="373.57" rx="43.6" ry="8.73"/>
          <g>
            <path class="cls-23" d="M463.52,375.93h-70.18c-2.31,0-3.48-2.78-1.86-4.43l6.7-6.84c.82-.83,1.93-1.3,3.1-1.3h54.29c1.17,0,2.28.47,3.1,1.3l6.7,6.84c1.62,1.65.45,4.43-1.86,4.43Z"/>
            <path class="cls-9" d="M451.49,368.54c-14.28,1.58-29.81,1.35-46.11,0l4.14-10.83,2.37-6.21,2.99-7.82,2.37-6.21,3.53-9.24,2.37-6.21,2.99-7.82c.8-2.11,3.78-2.11,4.59,0l2.99,7.82,2.37,6.21,3.53,9.24,2.37,6.21,2.99,7.82,2.37,6.21,4.14,10.83Z"/>
            <polygon class="cls-40" points="436.09 328.24 420.77 328.24 423.15 322.03 433.71 322.03 436.09 328.24"/>
            <polygon class="cls-40" points="441.99 343.69 414.87 343.69 417.24 337.48 439.62 337.48 441.99 343.69"/>
            <polygon class="cls-40" points="447.35 357.71 409.51 357.71 411.88 351.51 444.98 351.51 447.35 357.71"/>
          </g>
        </g>
        <g>
          <ellipse class="cls-36" cx="79.96" cy="373.57" rx="43.6" ry="8.73"/>
          <g>
            <path class="cls-8" d="M115.05,375.93H44.87c-2.31,0-3.48-2.78-1.86-4.43l6.7-6.84c.82-.83,1.93-1.3,3.1-1.3h54.29c1.17,0,2.28.47,3.1,1.3l6.7,6.84c1.62,1.65.45,4.43-1.86,4.43Z"/>
            <path class="cls-19" d="M103.02,368.54c-14.28,1.58-29.81,1.35-46.11,0l4.14-10.83,2.37-6.21,2.99-7.82,2.37-6.21,3.53-9.24,2.37-6.21,2.99-7.82c.8-2.11,3.78-2.11,4.59,0l2.99,7.82,2.37,6.21,3.53,9.24,2.37,6.21,2.99,7.82,2.37,6.21,4.14,10.83Z"/>
            <polygon class="cls-40" points="87.61 328.24 72.3 328.24 74.68 322.03 85.24 322.03 87.61 328.24"/>
            <polygon class="cls-40" points="93.52 343.69 66.4 343.69 68.77 337.48 91.15 337.48 93.52 343.69"/>
            <polygon class="cls-40" points="98.88 357.71 61.04 357.71 63.41 351.51 96.51 351.51 98.88 357.71"/>
          </g>
        </g>
      </g>
      <g>
        <path class="cls-6" d="M460.22,165.57l-4.25-19.22-18,3.98c-1.91-4.35-4.56-8.4-7.85-12l9.66-15.15-16.6-10.58-9.24,14.5c-5.62-2.25-11.52-3.3-17.37-3.17l-3.98-18.01-19.22,4.26,4.11,18.56c-3.54,1.79-6.86,4.06-9.85,6.8l-15.15-9.66-10.58,16.6,14.5,9.24c-2.25,5.62-3.3,11.52-3.17,17.37l-15.74,3.48,4.25,19.22,16.3-3.61c2.28,4.52,5.33,8.69,9.15,12.27l-9.25,14.5,16.6,10.58,9.66-15.15c5.41,1.71,11.01,2.32,16.53,1.9l4.01,18.12,19.22-4.25-4.34-19.64c3.7-2.13,7.12-4.81,10.14-8.02l14.5,9.25,10.58-16.6-15.15-9.66c1.22-3.87,1.88-7.84,2.01-11.8l18.56-4.1ZM412.66,177.89c-5.35,8.39-16.52,10.86-24.91,5.51-8.39-5.35-10.86-16.52-5.51-24.91,5.35-8.39,16.52-10.86,24.91-5.51,8.39,5.35,10.86,16.52,5.51,24.91Z"/>
        <path class="cls-24" d="M102,250.31l-2.66-12.01-11.25,2.49c-1.2-2.72-2.85-5.25-4.91-7.5l6.03-9.46-10.37-6.61-5.78,9.06c-3.51-1.41-7.2-2.06-10.85-1.98l-2.49-11.25-12.01,2.66,2.57,11.6c-2.21,1.12-4.28,2.54-6.16,4.25l-9.46-6.04-6.61,10.37,9.06,5.77c-1.41,3.51-2.06,7.2-1.98,10.85l-9.84,2.17,2.66,12.01,10.18-2.25c1.43,2.82,3.33,5.43,5.72,7.67l-5.78,9.06,10.37,6.61,6.04-9.46c3.38,1.07,6.88,1.45,10.33,1.19l2.5,11.32,12.01-2.66-2.71-12.27c2.31-1.33,4.45-3.01,6.33-5.01l9.06,5.78,6.61-10.37-9.46-6.03c.76-2.42,1.17-4.9,1.25-7.38l11.6-2.56ZM72.28,258.01c-3.34,5.24-10.32,6.79-15.56,3.44-5.24-3.34-6.79-10.32-3.44-15.56,3.34-5.24,10.32-6.79,15.56-3.44,5.24,3.34,6.79,10.32,3.44,15.56Z"/>
      </g>
      <g>
        <ellipse class="cls-18" cx="251.76" cy="420.45" rx="210.64" ry="17.07"/>
        <g>
          <g>
            <rect class="cls-21" x="84.04" y="188.79" width="339.61" height="210.58" rx="13.68" ry="13.68"/>
            <path class="cls-40" d="M408.57,211.78v164.6c0,4.84-3.92,8.77-8.77,8.77H107.9c-2.59,0-4.92-1.12-6.52-2.91-1.4-1.55-2.25-3.61-2.25-5.86v-164.6c0-4.84,3.93-8.77,8.77-8.77h291.9c1.62,0,3.14.44,4.44,1.21,2.59,1.52,4.33,4.34,4.33,7.56Z"/>
            <g>
              <path class="cls-42" d="M321.04,300.16l-60.95,60.95c-.77.77-1.77,1.15-2.77,1.15s-2.01-.38-2.77-1.15l-60.95-60.95c-1.53-1.53-1.53-4.01,0-5.54l60.95-60.95c.76-.77,1.77-1.15,2.77-1.15,1,0,2.01.38,2.77,1.15l60.95,60.95c1.53,1.53,1.53,4.01,0,5.54Z"/>
              <path class="cls-5" d="M203.28,295.3l51.95-51.95c1.15-1.15,3.02-1.15,4.17,0l51.95,51.95c1.15,1.15,1.15,3.02,0,4.17l-51.95,51.95c-1.15,1.15-3.02,1.15-4.17,0l-51.95-51.95c-1.15-1.15-1.15-3.02,0-4.17Z"/>
              <g>
                <polygon class="cls-47" points="263.57 311.85 251.48 311.85 247.96 266.26 266.68 266.26 263.57 311.85"/>
                <path class="cls-14" d="M264.17,323.46c0,3.86-3.13,6.98-6.98,6.98s-6.98-3.13-6.98-6.98,3.13-6.98,6.98-6.98,6.98,3.13,6.98,6.98Z"/>
              </g>
              <g>
                <polygon class="cls-16" points="210.84 294.58 208.47 294.58 207.29 296.63 208.47 298.69 210.84 298.69 212.03 296.63 210.84 294.58"/>
                <polygon class="cls-2" points="307.8 294.58 305.42 294.58 304.24 296.63 305.42 298.69 307.8 298.69 308.98 296.63 307.8 294.58"/>
                <polygon class="cls-28" points="258.5 246.94 256.13 246.94 254.95 249 256.13 251.05 258.5 251.05 259.69 249 258.5 246.94"/>
                <polygon class="cls-49" points="258.5 343.17 256.13 343.17 254.95 345.22 256.13 347.27 258.5 347.27 259.69 345.22 258.5 343.17"/>
              </g>
              <path class="cls-4" d="M257.32,357.41c-1.11,0-2.23-.42-3.07-1.27l-55.54-55.54c-.82-.82-1.27-1.91-1.27-3.07s.45-2.25,1.27-3.07l.3.3-.3-.3,55.54-55.54c.82-.82,1.91-1.27,3.07-1.27s2.25.45,3.07,1.27l55.54,55.54c1.7,1.7,1.7,4.45,0,6.15l-55.54,55.54c-.85.85-1.96,1.27-3.07,1.27ZM257.32,238.49c-.93,0-1.81.36-2.47,1.02l-55.54,55.54c-.66.66-1.02,1.54-1.02,2.47s.36,1.81,1.02,2.47l55.54,55.54c1.36,1.36,3.58,1.36,4.94,0l55.54-55.54c1.36-1.36,1.36-3.58,0-4.94l-55.54-55.54c-.66-.66-1.54-1.02-2.47-1.02Z"/>
            </g>
          </g>
          <path class="cls-13" d="M455.38,392.05v1.17c0,5.83-1.87,11.22-5.04,15.6-4.84,6.69-12.72,11.05-21.61,11.05H78.97c-8.89,0-16.77-4.36-21.61-11.05-3.17-4.38-5.04-9.77-5.04-15.6v-1.17h403.06Z"/>
          <path class="cls-15" d="M208.68,392.05v.27c0,2.11,1.41,3.82,3.16,3.82h82.28c1.74,0,3.16-1.71,3.16-3.82v-.27h-88.6Z"/>
          <g>
            <path class="cls-44" d="M408.57,211.78v9.71H99.13v-9.71c0-1.87.58-3.6,1.58-5.02,1.58-2.27,4.21-3.75,7.19-3.75h291.9c2.98,0,5.61,1.48,7.19,3.75,1,1.42,1.58,3.15,1.58,5.02Z"/>
            <rect class="cls-40" x="168.94" y="210.27" width="165.64" height="4.91" rx="1.01" ry="1.01"/>
            <polygon class="cls-27" points="129.39 212.73 129.39 215.72 126.79 214.22 124.2 212.73 126.79 211.23 129.39 209.73 129.39 212.73"/>
            <polygon class="cls-11" points="137.59 212.73 137.59 215.72 140.18 214.22 142.77 212.73 140.18 211.23 137.59 209.73 137.59 212.73"/>
          </g>
          <path class="cls-52" d="M406.99,206.77H100.71c1.58-2.27,4.21-3.75,7.19-3.75h291.9c2.98,0,5.61,1.48,7.19,3.75Z"/>
          <path class="cls-33" d="M408.57,211.78v164.6c0,4.84-3.92,8.77-8.77,8.77H107.9c-2.59,0-4.92-1.12-6.52-2.91l302.86-178.02c2.59,1.52,4.33,4.34,4.33,7.56Z"/>
        </g>
      </g>
      <g>
        <g>
          <polygon class="cls-17" points="257.83 128.86 257.33 129.37 250.13 136.57 233.82 152.87 220.91 185.3 220.91 148.05 240.33 128.63 240.33 128.63 245.15 123.81 257.46 128.71 257.83 128.86"/>
          <polygon class="cls-7" points="293.74 148.05 293.74 185.3 280.83 152.87 265.2 137.25 257.33 129.37 256.82 128.86 257.46 128.71 271.13 125.45 275.05 129.36 293.74 148.05"/>
          <path class="cls-34" d="M275.05,129.36c-2.06,3.04-5.21,6.28-9.85,7.89l-7.88-7.88-7.2,7.2c-4.66-1.95-7.82-5.2-9.8-7.94h0s4.82-4.83,4.82-4.83l12.3,4.9,13.68-3.26,3.92,3.92Z"/>
          <g>
            <circle class="cls-45" cx="257.57" cy="116.93" r="15.42"/>
            <circle class="cls-40" cx="257.57" cy="116.93" r="8.52"/>
          </g>
        </g>
        <g>
          <rect class="cls-1" x="243.39" width="28.38" height="101.51"/>
          <g>
            <polygon class="cls-35" points="266.67 0 243.39 23.28 243.39 11.05 254.44 0 266.67 0"/>
            <polygon class="cls-51" points="271.77 6.86 271.77 19.1 243.39 47.48 243.39 35.24 271.77 6.86"/>
            <polygon class="cls-10" points="271.77 31.06 271.77 43.29 243.39 71.66 243.39 59.43 271.77 31.06"/>
            <polygon class="cls-37" points="271.77 55.24 271.77 67.48 243.39 95.85 243.39 83.62 271.77 55.24"/>
            <polygon class="cls-50" points="271.77 79.43 271.77 91.67 261.93 101.51 249.69 101.51 271.77 79.43"/>
          </g>
        </g>
      </g>
      <g>
        <g>
          <path class="cls-26" d="M157.27,458.22c0,6.77-27.44,12.27-61.29,12.27s-61.29-5.49-61.29-12.27,27.44-12.27,61.29-12.27,61.29,5.49,61.29,12.27Z"/>
          <g>
            <path class="cls-3" d="M145.31,461.53H46.65c-3.25,0-4.89-3.91-2.62-6.23l9.42-9.61c1.15-1.17,2.72-1.83,4.36-1.83h76.32c1.64,0,3.21.66,4.36,1.83l9.42,9.61c2.27,2.32.63,6.23-2.62,6.23Z"/>
            <path class="cls-20" d="M128.39,451.15c-20.07,2.22-41.91,1.89-64.82,0l5.82-15.22,3.33-8.73,4.2-10.99,3.33-8.73,4.96-12.99,3.33-8.73,4.2-11c1.13-2.96,5.32-2.96,6.45,0l4.2,11,3.33,8.73,4.96,12.99,3.33,8.73,4.2,10.99,3.33,8.73,5.82,15.22Z"/>
            <polygon class="cls-40" points="106.74 394.5 85.22 394.5 88.55 385.77 103.41 385.77 106.74 394.5"/>
            <polygon class="cls-40" points="115.04 416.22 76.92 416.22 80.25 407.49 111.7 407.49 115.04 416.22"/>
            <polygon class="cls-40" points="122.57 435.93 69.38 435.93 72.72 427.21 119.24 427.21 122.57 435.93"/>
          </g>
        </g>
        <g>
          <path class="cls-29" d="M472.71,458.22c0,6.77-27.44,12.27-61.29,12.27s-61.29-5.49-61.29-12.27,27.44-12.27,61.29-12.27,61.29,5.49,61.29,12.27Z"/>
          <g>
            <path class="cls-46" d="M460.75,461.53h-98.65c-3.25,0-4.89-3.91-2.62-6.23l9.42-9.61c1.15-1.17,2.72-1.83,4.36-1.83h76.32c1.64,0,3.21.66,4.36,1.83l9.42,9.61c2.27,2.32.63,6.23-2.62,6.23Z"/>
            <path class="cls-38" d="M443.83,451.15c-20.07,2.22-41.91,1.89-64.82,0l5.82-15.22,3.33-8.73,4.2-10.99,3.33-8.73,4.96-12.99,3.33-8.73,4.2-11c1.13-2.96,5.32-2.96,6.45,0l4.2,11,3.33,8.73,4.96,12.99,3.33,8.73,4.2,10.99,3.33,8.73,5.82,15.22Z"/>
            <polygon class="cls-40" points="422.19 394.5 400.66 394.5 404 385.77 418.85 385.77 422.19 394.5"/>
            <polygon class="cls-40" points="430.48 416.22 392.36 416.22 395.7 407.49 427.15 407.49 430.48 416.22"/>
            <polygon class="cls-40" points="438.02 435.93 384.83 435.93 388.16 427.21 434.69 427.21 438.02 435.93"/>
          </g>
        </g>
      </g>
      <g>
        <path class="cls-39" d="M376.47,490.33c0,5.34-55.23,9.67-123.35,9.67s-123.35-4.33-123.35-9.67,55.23-9.67,123.35-9.67,123.35,4.33,123.35,9.67Z"/>
        <g>
          <g>
            <rect class="cls-12" x="157.63" y="360.56" width="16.93" height="123.68"/>
            <rect class="cls-48" x="157.63" y="419.4" width="16.93" height="7.74"/>
            <rect class="cls-25" x="146.69" y="477.11" width="38.83" height="12.31"/>
          </g>
          <g>
            <rect class="cls-30" x="331.68" y="360.56" width="16.93" height="123.68"/>
            <rect class="cls-22" x="331.68" y="419.4" width="16.93" height="7.74"/>
            <rect class="cls-41" x="320.73" y="477.11" width="38.83" height="12.31"/>
          </g>
          <g>
            <rect class="cls-31" x="138.99" y="372.28" width="228.27" height="47.12"/>
            <rect class="cls-32" x="140.71" y="374.01" width="224.82" height="43.67"/>
            <g>
              <polygon class="cls-40" points="187.19 417.68 168.38 417.68 140.71 390.01 140.71 374.01 143.52 374.01 187.19 417.68"/>
              <polygon class="cls-40" points="226.58 417.68 207.77 417.68 164.1 374.01 182.92 374.01 226.58 417.68"/>
              <polygon class="cls-40" points="265.98 417.68 247.16 417.68 203.5 374.01 222.31 374.01 265.98 417.68"/>
              <polygon class="cls-40" points="305.37 417.68 286.56 417.68 242.89 374.01 261.7 374.01 305.37 417.68"/>
              <polygon class="cls-40" points="344.77 417.68 325.95 417.68 282.28 374.01 301.09 374.01 344.77 417.68"/>
              <polygon class="cls-40" points="365.53 399.05 365.53 417.68 365.35 417.68 321.68 374.01 340.49 374.01 365.53 399.05"/>
            </g>
          </g>
        </g>
      </g>
    </g>
  </g>
</svg>