<?xml version="1.0" encoding="UTF-8"?>
<svg id="_1" data-name="1" xmlns="http://www.w3.org/2000/svg" viewBox="0 0 543 543">
  <defs>
    <style>
      .cls-1 {
        fill: #00ffce;
        stroke-width: 0px;
      }
    </style>
  </defs>
  <path class="cls-1" d="m431.12,221.15c-16.78,0-30.39,13.61-30.39,30.39s13.61,30.39,30.39,30.39,30.39-13.61,30.39-30.39-13.61-30.39-30.39-30.39Zm0,41.79c-6.3,0-11.4-5.11-11.4-11.4s5.11-11.4,11.4-11.4,11.4,5.11,11.4,11.4-5.11,11.4-11.4,11.4Zm63.84-91.02h-157.75v69.13h5.37l.92,13.08c5.04.91,9.86,2.49,14.34,4.64l8.42-10.03,14.93,10.85-6.96,11.13c3.47,3.63,6.47,7.72,8.88,12.18l12.71-3.17,5.7,17.55-12.17,4.92c.33,2.46.51,4.97.51,7.53s-.19,5.06-.51,7.53l12.17,4.91-5.7,17.55-12.71-3.16c-2.42,4.45-5.41,8.54-8.88,12.18l6.96,11.13-14.93,10.85-8.42-10.03c-4.48,2.16-9.3,3.72-14.34,4.64l-.92,13.08h-18.47l-.91-13.08c-5.04-.91-9.87-2.48-14.34-4.64l-8.42,10.03-14.93-10.85,6.96-11.13c-1.97-2.06-3.74-4.31-5.38-6.64-1.22.08-2.43.19-3.67.19h-70.35v17.3c0,25.7,20.83,46.52,46.52,46.52h188.42c10.02,22.94,39.03,34.98,60.38,36.08-10.8-6.88-19.75-21.11-24.73-36.08h11.29c25.7,0,46.52-20.83,46.52-46.52v-141.15c0-25.7-20.83-46.52-46.52-46.52Zm-16.75,96l-9.34-1.24c-1.36,3.38-3.17,6.55-5.36,9.42l5.87,7.4-9.79,8.97-6.84-6.49c-3.03,1.91-6.34,3.42-9.88,4.48l.41,9.43-13.2,1.49-1.71-9.27c-3.68-.25-7.25-.98-10.63-2.16l-5.2,7.86-11.56-6.55,4.08-8.53c-2.78-2.32-5.25-4.99-7.34-7.98l-8.83,3.3-5.51-12.09,8.3-4.49c-.43-1.74-.76-3.52-.98-5.35-.2-1.83-.28-3.63-.24-5.43l-9.1-2.52,2.66-13.01,9.34,1.23c1.36-3.38,3.17-6.55,5.36-9.43l-5.87-7.39,9.8-8.97,6.83,6.49c3.03-1.91,6.34-3.42,9.88-4.49l-.41-9.42,13.2-1.5,1.71,9.28c3.68.25,7.25.98,10.63,2.15l5.2-7.85,11.56,6.55-4.08,8.52c2.78,2.32,5.26,5,7.34,7.99l8.83-3.3,5.51,12.09-8.3,4.5c.43,1.73.76,3.52.98,5.35.2,1.82.28,3.63.24,5.43l9.1,2.52-2.66,13.01Zm-175.12,70.59c2.15-.84,4.24-1.79,6.23-2.91,6.32,5.87,14.73,9.54,24.04,9.54,19.56,0,35.41-15.85,35.41-35.41,0-18.24-13.84-33.08-31.56-35.03v-6.58c21.28,1.95,37.94,19.82,37.94,41.61,0,23.08-18.71,41.8-41.8,41.8-11.93,0-22.66-5.02-30.27-13.02Zm-19.67-237.7H48.05c-25.7,0-46.53,20.83-46.53,46.52v141.15c0,25.7,20.84,46.52,46.53,46.52h11.29c-4.97,14.98-13.93,29.2-24.73,36.08,21.35-1.1,50.36-13.14,60.38-36.08h188.42c25.7,0,46.52-20.83,46.52-46.52v-141.15c0-25.7-20.83-46.52-46.52-46.52Zm-111.49,170.12H51.36v-12.31h120.57v12.31Zm0-19.62H51.36v-12.31h120.57v12.31Zm0-19.66H51.36v-12.31h120.57v12.31Zm0-19.65H51.36v-12.32h120.57v12.32Zm0-24.59H51.36v-24.64h120.57v24.64Zm44.53,79.64c-2.65,2.44-6.34,3.67-11.09,3.67s-8.56-1.23-11.27-3.67c-2.72-2.45-4.08-5.86-4.08-10.22s1.31-7.84,3.93-10.29c2.62-2.45,6.43-3.68,11.42-3.68s8.7,1.23,11.24,3.68c2.54,2.45,3.82,5.88,3.82,10.29s-1.32,7.77-3.97,10.22Zm.99-35.69h-24.01l-3.71-68.83h31.43l-3.71,68.83Zm53.1,35.81c-2.65,2.38-6.26,3.58-10.85,3.58s-8.43-1.18-11.1-3.54c-2.67-2.36-4.01-5.75-4.01-10.13s1.27-7.78,3.83-10.17c2.55-2.39,6.32-3.58,11.28-3.58s8.44,1.21,10.99,3.62c2.56,2.41,3.84,5.79,3.84,10.13s-1.32,7.71-3.98,10.1Zm23.35-63.28c-2.7,4.23-7.01,8.22-12.93,12-5.01,3.24-8.14,5.62-9.41,7.12-1.26,1.5-1.89,3.29-1.89,5.34v3.65h-21.99v-6.16c0-4.67.96-8.63,2.87-11.85,1.91-3.22,5.29-6.36,10.17-9.41,3.86-2.43,6.64-4.64,8.34-6.59,1.7-1.95,2.54-4.2,2.54-6.73,0-2.01-.91-3.59-2.72-4.76-1.81-1.17-4.18-1.75-7.09-1.75-7.21,0-15.64,2.55-25.29,7.66l-9.95-19.48c11.88-6.78,24.3-10.17,37.23-10.17,10.65,0,19.01,2.34,25.07,7.03,6.07,4.67,9.1,11.05,9.1,19.11,0,5.78-1.35,10.78-4.04,15Z"/>
</svg>