<?xml version="1.0" encoding="UTF-8"?>
<svg id="_1" data-name="1" xmlns="http://www.w3.org/2000/svg" viewBox="0 0 543 543">
  <defs>
    <style>
      .cls-1 {
        fill: #00ffce;
        stroke-width: 0px;
      }
    </style>
  </defs>
  <g id="_743_Education_Insurance_Life" data-name="743, Education, Insurance, Life">
    <g>
      <path class="cls-1" d="m116.55,107.44c0-1.93,1.94-4.84,3.87-5.81,43.56-18.39,89.05-28.07,133.57-28.07,48.4,0,98.73,10.65,150.03,31.94,1.94.96,3.87,2.9,3.87,5.8v26.14l30.98-35.81,16.46,118.09c-13.55,2.9-23.23,15.49-23.23,29.04,0,16.45,13.55,30.01,30.01,30.01s30-13.55,30-30.01c0-14.52-10.64-27.1-25.16-30.01l-17.42-128.73v-.97l2.9-2.9L264.64,0,73,86.15l44.52,47.43c-.97-8.71-.97-17.43-.97-26.14Z"/>
      <path class="cls-1" d="m54.61,285.54c0-9.68-7.74-18.39-18.39-18.39s-18.39,7.74-18.39,18.39,7.74,18.38,18.39,18.38,18.39-8.71,18.39-18.38Z"/>
      <path class="cls-1" d="m495.98,473.31c-9.68,0-18.39,7.74-18.39,18.39s7.74,18.38,18.39,18.38c9.68,0,18.38-7.74,18.38-18.38s-7.74-18.39-18.38-18.39Z"/>
      <path class="cls-1" d="m254,86.15c-42.59,0-84.21,8.71-124.86,25.16v119.06c46.46-12.59,91.95-18.39,136.48-18.39s87.11,5.8,129.69,18.39v-115.18c-48.4-19.36-95.82-29.04-141.31-29.04Z"/>
      <path class="cls-1" d="m514.36,73.56c6.78,0,12.59-5.81,12.59-12.58s-5.81-12.59-12.59-12.59-12.58,5.81-12.58,12.59c.97,7.74,5.81,12.58,12.58,12.58Z"/>
      <path class="cls-1" d="m497.91,315.54c-7.75,0-14.52,2.9-20.33,8.72h0l-109.37,101.63c-.96,6.77-4.84,13.54-9.68,19.36-7.74,7.74-18.39,12.58-29.04,11.61l-122.92-5.8c-2.91,0-5.81-2.9-5.81-6.78,0-2.9,2.9-5.8,6.77-5.8l122.92,5.8c7.75,0,14.52-2.9,20.33-7.74,4.84-5.8,7.74-12.58,6.78-20.32-.97-12.59-11.62-22.27-23.23-23.23h0l-220.68-24.2-86.14,86.15,88.08,88.08,22.26-22.26-50.33-50.33c-1.93-1.94-1.93-5.8,0-8.72,1.94-1.93,5.81-1.93,8.71,0l52.27,52.27,211,7.74,158.74-158.73c11.62-11.62,11.62-29.04,0-40.65-5.8-3.88-12.58-6.78-20.32-6.78Z"/>
    </g>
  </g>
</svg>