<?xml version="1.0" encoding="UTF-8"?>
<svg id="_1" data-name="1" xmlns="http://www.w3.org/2000/svg" viewBox="0 0 543 543">
  <defs>
    <style>
      .cls-1 {
        fill: #00ffce;
        stroke-width: 0px;
      }
    </style>
  </defs>
  <path class="cls-1" d="m271.66,492.35c-28.81-.22-57.19-3.23-84.19-14.03-39.08-15.63-65.27-42.91-75-84.59-2.38-10.21-3.9-20.61-1.82-31.07,2.76-13.88,10.23-24.65,22.46-31.89,11.87-7.03,23.85-13.86,35.74-20.85,24.64-14.49,41.67-35.32,51.72-62.01,4.42-11.75,10.84-22.24,20.37-30.61,17.85-15.68,43.23-15.72,61.11-.09,9.65,8.44,16.07,19.07,20.56,30.94,10.04,26.53,27.01,47.27,51.53,61.69,11.56,6.8,23.21,13.43,34.74,20.28,18.01,10.7,26.11,26.78,24.11,47.43-4.81,49.65-31.94,82.5-77.5,100.85-26.85,10.81-55.14,13.7-83.82,13.95Zm-.55-146.17c-2.46-2.71-4.6-5.29-6.98-7.63-13.8-13.6-34.72-14.07-48.05-1.15-13.85,13.42-14.55,34.54-.86,48.63,16.9,17.41,34.34,34.29,51.6,51.35,3.29,3.25,6.62,3.25,9.86.02,17.37-17.31,34.83-34.54,51.95-52.09,8.23-8.44,10.83-19.02,8.27-30.46-5.67-25.33-35.31-35.11-55.51-18.41-3.37,2.78-6.37,6.01-10.29,9.74Z"/>
  <path class="cls-1" d="m257.54,121.34c-.45,11.61-2.8,22.61-8.24,32.84-14.94,28.12-45.98,33.39-69.37,11.81-22.97-21.19-30.48-60.52-16.73-88.49,6.64-13.5,16.57-23.38,31.94-26.19,12.42-2.27,23.54,1.48,33.43,8.86,14.65,10.93,22.86,25.99,26.63,43.57,1.24,5.77,1.59,11.72,2.35,17.59Z"/>
  <path class="cls-1" d="m386.37,111.13c-.78,21.52-8.02,42.47-27.11,57.73-22.26,17.79-50.39,12.68-64.37-12.17-14.65-26.04-12-52.27,2.27-77.68,5.86-10.44,14.28-18.56,25.25-23.75,17.68-8.36,37.16-4.12,49.63,10.9,10.27,12.37,14.08,26.97,14.33,44.96Z"/>
  <path class="cls-1" d="m174.78,234.68c-.03,10.23-2.09,19.97-7.12,28.95-10.12,18.09-29.78,25.22-49.08,17.6-15.32-6.06-25.7-17.47-32.56-32.04-8.88-18.87-11.08-38.34-2.67-58.01,7.65-17.9,23.61-27.02,42.14-24.16,12.81,1.98,22.86,9.04,31.21,18.64,11.56,13.3,18.08,31.19,18.07,49.02Z"/>
  <path class="cls-1" d="m368.08,235.76c.99-24.39,8.74-43.91,26.75-58.25,13.82-11,29.33-15.34,46.1-6.96,14.37,7.18,21.3,20.08,23.28,35.34,3.2,24.72-4.5,46.2-22.26,63.58-11.43,11.17-25.28,17.12-41.6,13.13-17.35-4.24-26.15-16.87-30.29-33.28-1.25-4.95-1.5-10.16-1.98-13.55Z"/>
</svg>