<?xml version="1.0" encoding="UTF-8"?>
<svg id="_1" data-name="1" xmlns="http://www.w3.org/2000/svg" viewBox="0 0 543 543">
  <defs>
    <style>
      .cls-1 {
        fill: #00ffce;
        stroke-width: 0px;
      }
    </style>
  </defs>
  <path class="cls-1" d="m364.13,358.19c0-4.98.2-9.5-.12-13.99-.09-1.29-1.41-2.93-2.62-3.62-17.94-10.34-29.02-25.56-32.92-45.92-6.7-34.96,18.97-70.46,54.28-75.15,35.61-4.72,66.63,17.55,73.5,52.77,5.16,26.46-7.89,54.14-32.18,67.77-2.66,1.49-3.66,3.05-3.47,6.01.25,3.96.06,7.95.06,11.67,6.04.88,11.75,1.21,17.19,2.58,26.79,6.71,44.7,29.95,44.91,58.18.15,20.91.05,41.81.03,62.72,0,6.88-2.38,9.19-9.43,9.19-48.4.01-96.79,0-145.19,0-6.07,0-12.13.08-18.2-.03-4.95-.09-7.88-2.53-7.88-7.15-.02-23.48-.85-47.03.51-70.44,1.77-30.46,26.7-53.27,57.25-54.4,1.26-.05,2.52-.12,4.28-.21Zm28.31-23.69c28.13-.02,51.05-22.96,50.95-51.02-.1-27.91-22.93-50.71-50.84-50.75-28.17-.04-51.09,22.75-51.14,50.83-.04,28.07,22.88,50.95,51.02,50.94Zm38.34,38.35c-3.5-.22-6.07-.51-8.63-.51-19.61-.04-39.22-.04-58.84-.02-27.68.03-47.28,19.6-47.34,47.27-.04,17.55-.01,35.1,0,52.64,0,1.25.12,2.5.2,3.95,6.81.59,12.38.66,17.91-5.06,30.76-31.82,62.07-63.1,93.18-94.57.97-.99,1.91-2.01,3.52-3.71Zm25.61,13.92c-29.42,29.75-58.65,59.31-88.33,89.33,1.31.19,1.91.36,2.51.36,31.72.01,63.45-.02,95.17.07,2.73,0,3.16-1.13,3.15-3.47-.07-18.44.07-36.88-.08-55.32-.1-11.78-4.1-22.13-12.41-30.95Zm-78.01-38.9v10.28h28.03v-10.28h-28.03Z"/>
  <path class="cls-1" d="m178.97,357.76c5.98.84,11.56,1.15,16.9,2.45,26.47,6.45,44.7,29.39,45.16,57.19.36,21.55.11,43.11.07,64.66-.01,5.7-2.62,8.33-8.32,8.34-54.72.04-109.44.03-164.17,0-5.25,0-8.2-2.45-8.2-7.23-.01-23.48-.83-47.03.52-70.44,1.76-30.41,26.76-53.23,57.32-54.33,1.26-.05,2.51-.15,4.18-.25,0-5.07.15-9.95-.12-14.8-.06-1-1.54-2.2-2.64-2.83-17.81-10.25-28.85-25.34-32.8-45.55-6.86-35.13,18.75-70.74,54.29-75.46,38.78-5.15,72.6,22.29,74.28,61.32,1.11,25.91-10.54,45.72-32.79,59.06-2.85,1.71-4,3.39-3.74,6.64.3,3.82.07,7.67.07,11.23Zm-28.24-23.26c28.12.01,51.06-22.92,50.99-50.97-.07-27.91-22.91-50.74-50.79-50.79-28.18-.05-51.11,22.71-51.18,50.79-.06,28.07,22.83,50.96,50.98,50.98Zm-38.35,38.41c1.65,1.72,2.6,2.75,3.58,3.74,30.94,31.29,61.96,62.48,92.72,93.95,4.23,4.32,8.33,6.59,14.41,6.01,3.05-.29,4.2-.81,4.17-4.12-.16-17.93.02-35.87-.1-53.8-.18-26.68-19.98-46.3-46.69-46.36-20-.05-40-.03-60,.01-2.43,0-4.85.33-8.08.57Zm-37.9,103.26h100.68c-29.77-30.1-59.02-59.67-88.44-89.42-6.82,7.37-11.51,15.66-11.82,25.32-.66,20.22-.46,40.47-.6,60.71,0,1.01.11,2.03.18,3.39Zm62.21-118.14h28.05v-10.16h-28.05v10.16Z"/>
  <path class="cls-1" d="m271.44,52.56c44.66-.13,81.36,36.42,81.46,81.14.1,44.82-36.1,81.23-81.02,81.48-44.76.25-81.51-36.15-81.63-80.85-.13-45.03,36.23-81.64,81.19-81.77Zm.2,148.68c37.13-.04,67.27-30.14,67.32-67.21.04-37.2-30.35-67.61-67.48-67.52-37.23.09-67.37,30.4-67.29,67.69.08,37.04,30.31,67.09,67.45,67.05Z"/>
  <path class="cls-1" d="m259.46,155.04c14.48-18.17,28.62-35.91,42.76-53.65,1.04-1.31,2.06-2.64,3.14-3.93,3.01-3.57,6.96-4.19,10.18-1.63,3.17,2.52,3.55,6.69.7,10.31-7.82,9.92-15.74,19.77-23.62,29.65-9,11.29-17.99,22.6-27.01,33.87-4.21,5.26-8.86,5.19-12.96-.21-8.49-11.2-16.96-22.41-25.4-33.65-3.17-4.22-2.95-8.29.46-10.9,3.41-2.61,7.46-1.71,10.62,2.45,6.47,8.53,12.89,17.08,19.34,25.62.45.6.98,1.13,1.78,2.06Z"/>
</svg>