<?xml version="1.0" encoding="UTF-8"?>
<svg id="_1" data-name="1" xmlns="http://www.w3.org/2000/svg" viewBox="0 0 543 543">
  <defs>
    <style>
      .cls-1 {
        fill: #00ffce;
        stroke-width: 0px;
      }
    </style>
  </defs>
  <path class="cls-1" d="m271.5.11C121.61.11.11,121.61.11,271.5s121.51,271.39,271.39,271.39,271.39-121.51,271.39-271.39S421.39.11,271.5.11Zm0,511.07c-132.37,0-239.68-107.31-239.68-239.68S139.13,31.82,271.5,31.82s239.68,107.31,239.68,239.68-107.31,239.68-239.68,239.68Zm0-468.03c-126.11,0-228.35,102.23-228.35,228.35s102.23,228.35,228.35,228.35,228.35-102.23,228.35-228.35S397.61,43.15,271.5,43.15Zm191.94,116.56c1.39,2.39,2.74,4.79,4.04,7.23l-32.94,17.63c-1.09-2.04-2.21-4.05-3.37-6.03l32.27-18.84Zm-81.53-80.95c2.4,1.39,4.78,2.81,7.12,4.27l-19.8,31.69c-1.95-1.22-3.94-2.41-5.94-3.56l18.62-32.4Zm-110.41-29.35c2.54,0,5.07.04,7.59.13l-1.24,37.34c-2.11-.07-4.22-.1-6.35-.1l-.63-37.37h.63Zm-104.36,26l17.61,32.96c-2.04,1.09-4.06,2.21-6.05,3.37l-18.77-32.31c2.37-1.38,4.78-2.72,7.21-4.02Zm-83.98,78.35l31.66,19.85c-1.23,1.95-2.41,3.93-3.56,5.92l-32.39-18.64c1.39-2.4,2.81-4.78,4.29-7.13Zm-33.75,117.74c0-2.62.04-5.24.14-7.84l37.34,1.31c-.08,2.16-.11,4.34-.11,6.52l-37.37.42v-.42Zm29.92,111.38c-1.39-2.39-2.74-4.82-4.04-7.27l33.01-17.5c1.07,2.02,2.18,4.02,3.33,6l-32.31,18.77Zm81.36,81.12c-2.4-1.38-4.77-2.81-7.11-4.27l19.84-31.67c1.96,1.23,3.94,2.42,5.94,3.58l-18.67,32.36Zm110.81,29.58c-2.7,0-5.38-.05-8.06-.14l1.33-37.34c2.24.08,4.48.12,6.73.12l.21,37.37h-.21Zm83.06-160.56h-32.36v-23.48h-48.38v-24.07l50.45-73.76h30.29v73.35h13.36v24.48h-13.36v23.48Zm20.88,134.78l-17.52-33c2.03-1.08,4.05-2.2,6.03-3.35l18.73,32.33c-2.38,1.38-4.8,2.72-7.24,4.02Zm26.99-139.37h0v4.26h-17.64v-111.72h8.82s-.22-1.32-.64-3.79c-.24-2.52-1.41-6.04-2.6-10.37-.84-2.13-1.76-4.48-2.77-7.05-1.21-2.45-2.53-5.1-3.93-7.93-3.27-5.41-7.13-11.35-12.24-17.1-1.27-1.43-2.58-2.88-3.9-4.37-1.46-1.36-2.94-2.74-4.45-4.15-2.89-2.93-6.39-5.39-9.76-8.12-7.11-5.02-15.02-9.71-23.76-13.32-8.58-4-18.2-6.22-27.9-8.33-4.86-1.06-9.93-1.36-14.92-2.11-5.05-.31-10.16-.38-15.24-.61-4.63.22-10.52.31-15.55.64-4.88.75-9.75,1.03-14.61,2.08-9.69,2.13-19.31,4.33-27.89,8.34-8.75,3.61-16.64,8.31-23.76,13.31-3.36,2.74-6.87,5.19-9.75,8.13-1.51,1.4-2.99,2.78-4.45,4.14-1.33,1.48-2.63,2.94-3.9,4.37-5.11,5.74-8.97,11.68-12.24,17.09-1.4,2.83-2.72,5.48-3.94,7.93-1.01,2.56-1.93,4.92-2.77,7.04-1.2,4.4-2.36,7.9-2.6,10.37-.42,2.48-.65,3.79-.65,3.79h8.82v111.72h-5.08c0,41.65,36.18,69.16,95.82,74.62,2.53-8.66,11.63-15.1,22.56-15.1,12.88,0,23.32,8.91,23.32,19.9s-10.44,19.9-23.32,19.9c-11.84,0-21.51-7.55-23.01-17.3-63.16-5.98-102.84-36.79-102.84-82.02h-5.08v-4.26h0c-19.48,0-35.28-15.8-35.28-35.28v-32.65c0-19.48,15.8-35.27,35.28-35.27h0v-4.26h8.82s-.05-1.34-.16-3.84c-.24-2.55,0-6.24.52-11.01.47-2.34,1-4.94,1.57-7.76.73-2.79,1.81-5.73,2.84-8.94,2.56-6.18,5.76-13.15,10.63-19.92,4.54-7.02,10.76-13.69,17.93-20.1,7.34-6.16,15.67-12.19,25.25-16.58,2.38-1.12,4.78-2.24,7.2-3.38,2.51-.91,5.03-1.83,7.57-2.75,5.03-2.09,10.42-3.05,15.77-4.4,5.37-1.25,11.09-1.73,16.68-2.6,5.55-.43,10.31-.59,16.32-.9,5.55.31,11.11.49,16.62.94,5.49.88,11.02,1.34,16.38,2.58,5.35,1.35,10.73,2.33,15.76,4.41,2.54.92,5.07,1.84,7.57,2.75,2.42,1.14,4.83,2.26,7.21,3.38,9.57,4.38,17.89,10.43,25.24,16.57,7.16,6.41,13.37,13.09,17.92,20.1,4.87,6.76,8.06,13.74,10.63,19.91,1.03,3.21,2.11,6.14,2.85,8.93.57,2.83,1.1,5.42,1.57,7.77.53,4.83.77,8.5.52,11-.11,2.51-.16,3.84-.16,3.84h8.82v4.26h0c19.48,0,35.28,15.79,35.28,35.27v32.65c0,19.48-15.8,35.28-35.28,35.28Zm-175.91-88.17c-2.05-1.83-4.93-2.74-8.63-2.74s-7.68,1.09-11.58,3.28c-3.9,2.18-8.31,5.4-13.24,9.66l-18-21.07c6.25-5.59,11.5-9.58,15.76-11.99,4.26-2.41,8.89-4.25,13.9-5.52,5-1.27,10.63-1.91,16.89-1.91,7.85,0,14.86,1.38,21.03,4.15,6.17,2.77,10.96,6.71,14.35,11.83,3.4,5.11,5.1,10.86,5.1,17.22,0,4.76-.59,9.15-1.78,13.19-1.19,4.04-3.03,8-5.52,11.9-2.49,3.9-5.8,8.01-9.92,12.33-4.12,4.31-12.9,12.5-26.35,24.56v.83h45.89v27.05h-88.04v-21.57l29.63-29.95c8.46-8.85,13.99-14.89,16.59-18.13,2.6-3.24,4.41-6.02,5.44-8.34,1.02-2.33,1.53-4.76,1.53-7.3,0-3.15-1.02-5.64-3.07-7.47Zm233.06,149.38l-31.6-19.94c1.23-1.94,2.41-3.9,3.56-5.89l32.36,18.67c-1.39,2.42-2.83,4.8-4.31,7.15Zm33.85-109.87l-37.34-1.35c.08-2.3.13-4.61.13-6.93v-.84h37.37v.84c0,2.77-.05,5.53-.15,8.28Zm-171.4-26.66h.91c-.11.22-.26,2.59-.46,7.1-.2,4.51-.29,8.09-.29,10.75v14.1h-20l13.44-20c2.38-3.7,4.51-7.69,6.39-11.95Z"/>
</svg>