<?xml version="1.0" encoding="UTF-8"?>
<svg id="ELEMENTS" xmlns="http://www.w3.org/2000/svg" xmlns:xlink="http://www.w3.org/1999/xlink" viewBox="0 0 205.71 210.19">
  <defs>
    <style>
      .cls-1 {
        fill: url(#linear-gradient);
      }

      .cls-1, .cls-2, .cls-3, .cls-4 {
        stroke-width: 0px;
      }

      .cls-2 {
        fill: #00c9d0;
      }

      .cls-2, .cls-3, .cls-4 {
        fill-rule: evenodd;
      }

      .cls-3 {
        fill: #ff1753;
      }

      .cls-4 {
        fill: #fff;
      }
    </style>
    <linearGradient id="linear-gradient" x1="33.91" y1="36.15" x2="171.8" y2="174.04" gradientUnits="userSpaceOnUse">
      <stop offset="0" stop-color="#23004a"/>
      <stop offset=".96" stop-color="#010003"/>
      <stop offset="1" stop-color="#000"/>
    </linearGradient>
  </defs>
  <circle class="cls-1" cx="102.86" cy="105.09" r="97.5"/>
  <path class="cls-3" d="m123.28,89.86c7.08,5.06,15.76,8.04,25.13,8.04v-18.02c-1.77,0-3.54-.18-5.28-.55v14.19c-9.37,0-18.05-2.98-25.13-8.04v36.78c0,18.4-14.92,33.31-33.33,33.31-6.87,0-13.25-2.08-18.56-5.63,6.05,6.19,14.49,10.02,23.83,10.02,18.41,0,33.33-14.92,33.33-33.32v-36.78h0Zm6.51-18.18c-3.62-3.95-6-9.06-6.51-14.71v-2.32h-5c1.26,7.18,5.55,13.31,11.51,17.03h0Zm-52.03,64.14c-2.02-2.65-3.11-5.89-3.11-9.23,0-8.42,6.83-15.24,15.25-15.24,1.57,0,3.13.24,4.62.71v-18.43c-1.75-.24-3.51-.34-5.28-.3v14.34c-1.5-.47-3.06-.72-4.63-.71-8.42,0-15.25,6.82-15.25,15.24,0,5.95,3.41,11.1,8.39,13.61Z"/>
  <path class="cls-4" d="m118,85.47c7.08,5.06,15.76,8.04,25.13,8.04v-14.19c-5.23-1.11-9.86-3.85-13.34-7.65-5.96-3.72-10.25-9.85-11.51-17.03h-13.14v71.99c-.03,8.39-6.84,15.19-15.25,15.19-4.95,0-9.35-2.36-12.14-6.01-4.98-2.51-8.39-7.66-8.39-13.61,0-8.42,6.83-15.24,15.25-15.24,1.61,0,3.17.25,4.63.71v-14.34c-18.08.37-32.63,15.14-32.63,33.31,0,9.07,3.62,17.29,9.5,23.29,5.3,3.56,11.69,5.63,18.56,5.63,18.41,0,33.33-14.92,33.33-33.31v-36.78Z"/>
  <path class="cls-2" d="m143.13,79.32v-3.84c-4.72,0-9.34-1.31-13.34-3.81,3.54,3.88,8.21,6.55,13.34,7.65Zm-24.85-24.67c-.12-.69-.21-1.38-.28-2.07v-2.32h-18.14v71.99c-.03,8.39-6.84,15.19-15.25,15.19-2.47,0-4.8-.58-6.86-1.63,2.79,3.65,7.19,6.01,12.14,6.01,8.4,0,15.22-6.79,15.25-15.19V54.65h13.14Zm-29.03,38.68v-4.08c-1.52-.21-3.04-.31-4.57-.31-18.41,0-33.33,14.92-33.33,33.31,0,11.54,5.87,21.7,14.78,27.68-5.88-6.01-9.5-14.23-9.5-23.29,0-18.16,14.54-32.93,32.63-33.31h0Z"/>
</svg>