<?xml version="1.0" encoding="UTF-8"?>
<svg id="ELEMENTS" xmlns="http://www.w3.org/2000/svg" xmlns:xlink="http://www.w3.org/1999/xlink" viewBox="0 0 205.71 210.19">
  <defs>
    <style>
      .cls-1 {
        fill: url(#Degradado_sin_nombre_8);
      }

      .cls-1, .cls-2, .cls-3 {
        stroke-width: 0px;
      }

      .cls-2, .cls-3 {
        fill: #fff;
      }

      .cls-3 {
        fill-rule: evenodd;
      }
    </style>
    <linearGradient id="Degradado_sin_nombre_8" data-name="Degradado sin nombre 8" x1="32.25" y1="34.49" x2="173.47" y2="175.7" gradientUnits="userSpaceOnUse">
      <stop offset="0" stop-color="#00fb73"/>
      <stop offset="1" stop-color="#00b25b"/>
    </linearGradient>
  </defs>
  <circle class="cls-1" cx="102.86" cy="105.09" r="99.86"/>
  <g>
    <path class="cls-2" d="m51.44,156.64l7.39-27.57c-4.18-7.55-6.39-16.01-6.39-24.6,0-28.07,22.84-50.91,50.91-50.91s50.91,22.84,50.91,50.91-22.84,50.91-50.91,50.91c-8.43,0-16.75-2.13-24.2-6.17l-27.72,7.43Zm29.09-17.76l1.75,1.04c6.41,3.82,13.7,5.84,21.08,5.84,22.77,0,41.29-18.52,41.29-41.29s-18.52-41.29-41.29-41.29-41.29,18.52-41.29,41.29c0,7.52,2.09,14.92,6.04,21.41l1.07,1.76-4.13,15.4,15.48-4.15Z"/>
    <path class="cls-3" d="m122.3,111.55c-2.1-1.25-4.82-2.65-7.29-1.64-1.89.77-3.1,3.74-4.33,5.25-.63.78-1.38.9-2.35.51-7.11-2.83-12.56-7.58-16.48-14.12-.66-1.02-.55-1.82.26-2.76,1.19-1.39,2.67-2.98,2.99-4.86.32-1.88-.56-4.08-1.34-5.75-.99-2.14-2.1-5.19-4.25-6.4-1.97-1.11-4.57-.49-6.32.94-3.03,2.47-4.49,6.33-4.45,10.17.01,1.09.15,2.18.4,3.23.61,2.53,1.78,4.89,3.09,7.13.99,1.69,2.07,3.33,3.23,4.91,3.8,5.17,8.53,9.65,14.01,13.01,2.74,1.68,5.69,3.15,8.74,4.16,3.42,1.13,6.47,2.31,10.17,1.61,3.87-.73,7.69-3.13,9.22-6.86.45-1.1.68-2.33.43-3.5-.53-2.41-3.79-3.85-5.74-5.01Z"/>
  </g>
</svg>